<svg id="Layer_1" data-name="Layer 1" xmlns="http://www.w3.org/2000/svg" viewBox="0 0 211.7 219"><defs><style>.cls-1{fill:#676f8f;}</style></defs><title>AO Logo Dark</title><rect class="cls-1" width="211.7" height="8.76"/><rect class="cls-1" y="17.52" width="211.7" height="8.76"/><path class="cls-1" d="M211.85,35V43.8H136c-10.25-4.6-23.16-8.7-37.5-6.84-6.75.88-15.3,4.35-20.78,6.84H.15V35Z" transform="translate(-0.15 0)"/><polygon class="cls-1" points="80.14 61.32 0 61.32 0 52.56 75.36 52.56 80.14 61.32"/><path class="cls-1" d="M211.85,52.56v8.76h-51.2A81.46,81.46,0,0,0,151,52.56Z" transform="translate(-0.15 0)"/><polygon class="cls-1" points="56.5 70.08 51.75 78.84 0 78.84 0 70.08 56.5 70.08"/><polygon class="cls-1" points="89.7 78.84 71.96 78.84 67.15 70.08 84.92 70.08 89.7 78.84"/><path class="cls-1" d="M211.85,70.08v8.76H173.2a69.6,69.6,0,0,0-5.34-8.76Z" transform="translate(-0.15 0)"/><polygon class="cls-1" points="46.99 87.6 42.24 96.36 0 96.36 0 87.6 46.99 87.6"/><polygon class="cls-1" points="99.27 96.36 81.56 96.36 76.76 87.6 94.49 87.6 99.27 96.36"/><path class="cls-1" d="M211.85,87.6v8.76H179.19a68.1,68.1,0,0,0-2.29-8.76Z" transform="translate(-0.15 0)"/><path class="cls-1" d="M37.63,105.12l-3.42,6.3s-.54.27-.47,2.46H.15v-8.76Z" transform="translate(-0.15 0)"/><polygon class="cls-1" points="108.84 113.88 91.17 113.88 86.37 105.12 104.05 105.12 108.84 113.88"/><path class="cls-1" d="M211.85,105.12v8.76H180.41a73.27,73.27,0,0,0-.07-8.76Z" transform="translate(-0.15 0)"/><path class="cls-1" d="M118.55,131.4H.15v-8.76H35.38c1.75,6.83,1.75,5.57,1.75,5.57H99.18l-3.05-5.57h17.64Z" transform="translate(-0.15 0)"/><path class="cls-1" d="M211.85,122.64v8.76H177.41a74,74,0,0,0,2-8.76Z" transform="translate(-0.15 0)"/><path class="cls-1" d="M128.12,148.92H109.85l-3.37-6.11H42.24s1.48,2.79,3.49,6.11H.15v-8.76H123.33Z" transform="translate(-0.15 0)"/><path class="cls-1" d="M211.85,140.16v8.76h-42.4a62.82,62.82,0,0,0,4.73-8.76Z" transform="translate(-0.15 0)"/><path class="cls-1" d="M60.24,166.44H.15v-8.76H51.82A70.46,70.46,0,0,0,60.24,166.44Z" transform="translate(-0.15 0)"/><polygon class="cls-1" points="137.53 166.44 119.35 166.44 114.52 157.68 132.75 157.68 137.53 166.44"/><path class="cls-1" d="M211.85,157.68v8.76H152.94a74.8,74.8,0,0,0,9.61-8.76Z" transform="translate(-0.15 0)"/><path class="cls-1" d="M211.85,175.2V184H.15V175.2H74c.81.39,1.65.79,2.52,1.19,10.62,4.88,17.51,6.39,29.2,6.57a64,64,0,0,0,19-2.19c2.89-.71,7.3-2.19,7.3-2.19h-5.84l-1.86-3.38Z" transform="translate(-0.15 0)"/><rect class="cls-1" y="192.72" width="211.7" height="8.76"/><rect class="cls-1" y="210.24" width="211.7" height="8.76"/></svg>