<svg width="25" height="10" viewBox="0 0 25 10" fill="none" xmlns="http://www.w3.org/2000/svg">
<path fill-rule="evenodd" clip-rule="evenodd" d="M0.5 8.00849C0.5 8.83064 1.17062 9.5 1.99672 9.5H20.5033C21.329 9.5 22 8.83119 22 8.00849V2.49151C22 1.66936 21.3294 1 20.5033 1H1.99672C1.17101 1 0.5 1.66881 0.5 2.49151V8.00849ZM1.99672 0.5H20.5033C21.606 0.5 22.5 1.39374 22.5 2.49151V8.00849C22.5 9.10837 21.6041 10 20.5033 10H1.99672C0.893964 10 0 9.10626 0 8.00849V2.49151C0 1.39163 0.895911 0.5 1.99672 0.5ZM1 2.5C1 1.94772 1.44772 1.5 2 1.5H20.5C21.0523 1.5 21.5 1.94772 21.5 2.5V8C21.5 8.55228 21.0523 9 20.5 9H2C1.44772 9 1 8.55228 1 8V2.5ZM23.5 3.5H23V7H23.5C24.0523 7 24.5 6.55228 24.5 6V4.5C24.5 3.94772 24.0523 3.5 23.5 3.5Z" fill="black"/>
</svg>
