<svg width="34" height="6" viewBox="0 0 34 6" fill="none" xmlns="http://www.w3.org/2000/svg">
<path fill-rule="evenodd" clip-rule="evenodd" d="M6 3.25C6 4.76878 4.76878 6 3.25 6C1.73122 6 0.5 4.76878 0.5 3.25C0.5 1.73122 1.73122 0.5 3.25 0.5C4.76878 0.5 6 1.73122 6 3.25ZM10.25 6C11.7688 6 13 4.76878 13 3.25C13 1.73122 11.7688 0.5 10.25 0.5C8.73122 0.5 7.5 1.73122 7.5 3.25C7.5 4.76878 8.73122 6 10.25 6ZM20 3.25C20 4.76878 18.7688 6 17.25 6C15.7312 6 14.5 4.76878 14.5 3.25C14.5 1.73122 15.7312 0.5 17.25 0.5C18.7688 0.5 20 1.73122 20 3.25ZM24.25 6C25.7688 6 27 4.76878 27 3.25C27 1.73122 25.7688 0.5 24.25 0.5C22.7312 0.5 21.5 1.73122 21.5 3.25C21.5 4.76878 22.7312 6 24.25 6ZM33.5 3.25C33.5 2.00736 32.4926 1 31.25 1C30.0074 1 29 2.00736 29 3.25C29 4.49264 30.0074 5.5 31.25 5.5C32.4926 5.5 33.5 4.49264 33.5 3.25ZM28.5 3.25C28.5 1.73122 29.7312 0.5 31.25 0.5C32.7688 0.5 34 1.73122 34 3.25C34 4.76878 32.7688 6 31.25 6C29.7312 6 28.5 4.76878 28.5 3.25Z" fill="black"/>
</svg>
