<svg width="12" height="10" viewBox="0 0 12 10" fill="none" xmlns="http://www.w3.org/2000/svg">
<path fill-rule="evenodd" clip-rule="evenodd" d="M5.99613 2.01369C7.9359 2.01369 9.70424 2.7248 11.0593 3.89133L12 2.85657C10.3946 1.46981 8.29769 0.5 5.99574 0.5C3.69767 0.5 1.60351 1.46719 0 2.85023L0.93912 3.88573C2.29382 2.72219 4.05907 2.01369 5.99613 2.01369ZM5.91526 6.47263C5.13672 6.47263 4.42358 6.78917 3.86947 7.24571L5.91526 9.5L7.96337 7.24795C7.40887 6.79029 6.69534 6.47263 5.91526 6.47263ZM9.01316 6.11203C8.19399 5.4207 7.13182 5 5.96904 5C4.8082 5 3.74758 5.41883 2.92919 6.10904L1.93473 5.01269C3.0178 4.08955 4.4259 3.48631 5.96943 3.48631C7.51567 3.48631 8.92571 4.09141 10.0092 5.01717L9.01316 6.11203Z" fill="black"/>
</svg>
